<?xml version="1.0" encoding="UTF-8"?>
<svg version="1.1" xmlns="http://www.w3.org/2000/svg" width="347" height="119">
<path d="M0 0 C114.51 0 229.02 0 347 0 C347 39.27 347 78.54 347 119 C232.49 119 117.98 119 0 119 C0 79.73 0 40.46 0 0 Z " fill="#08955F" transform="translate(0,0)"/>
<path d="M0 0 C12.05134657 8.04764379 20.8563973 19.04629103 24.87890625 33.0625 C25.969548 38.55384306 26 43.2822419 26 49 C17.42 49 8.84 49 0 49 C-0.37125 46.4425 -0.7425 43.885 -1.125 41.25 C-2.75205182 31.37390922 -5.82968424 21.41953381 -14 15 C-14.58523437 14.53851562 -15.17046875 14.07703125 -15.7734375 13.6015625 C-20.87031846 9.95517731 -24.83238021 9.21011185 -31 10 C-31.69351563 10.08378906 -32.38703125 10.16757812 -33.1015625 10.25390625 C-38.59841496 11.26201626 -42.46546938 13.6790984 -46 18 C-53.83551849 31.14926091 -56.49832715 45.00753412 -53.58105469 60.17871094 C-52.51756707 64.0321271 -50.92558408 67.50954731 -49 71 C-48.40638672 72.08667969 -48.40638672 72.08667969 -47.80078125 73.1953125 C-44.94092819 77.73687317 -41.68057103 79.70226513 -37 82 C-36.35417969 82.35578125 -35.70835938 82.7115625 -35.04296875 83.078125 C-31.38860338 84.72713117 -27.91766036 84.61857795 -24 84 C-18.07195053 81.71243974 -18.07195053 81.71243974 -13 78 C-10.85613343 77.84141158 -8.70733162 77.74870702 -6.55859375 77.68359375 C-5.25341797 77.64169922 -3.94824219 77.59980469 -2.60351562 77.55664062 C-1.2148467 77.51682392 0.17382522 77.47711175 1.5625 77.4375 C2.95509183 77.39432011 4.34767028 77.350706 5.74023438 77.30664062 C9.16004801 77.20014124 12.57993763 77.09813077 16 77 C12.5278596 86.15202735 4.67553721 91.89419763 -4 96 C-20.16664832 102.39246873 -33.37953873 103.74161389 -50 98 C-64.47935045 91.7117214 -75.03801829 80.60350577 -81 66 C-85.1810851 54.5167381 -85.12607512 38.19162129 -81.0625 26.6875 C-73.92065992 11.78366006 -61.7859301 -0.05989737 -46.1875 -5.6875 C-30.62345393 -10.93923121 -14.00728708 -8.49206202 0 0 Z " fill="#E31527" transform="translate(87,13)"/>
<path d="M0 0 C6.91261449 -0.53548422 11.63595282 2.00483816 16.96875 6.265625 C19.38566767 8.73429679 21.20965307 11.29887219 22.96875 14.265625 C23.36964844 14.89726563 23.77054688 15.52890625 24.18359375 16.1796875 C28.19161 23.56813026 27.78042698 32.06415751 27.96875 40.265625 C27.37449219 40.26973389 26.78023437 40.27384277 26.16796875 40.27807617 C23.43393555 40.31129489 20.70204856 40.38196436 17.96875 40.453125 C17.03417969 40.45892578 16.09960938 40.46472656 15.13671875 40.47070312 C8.61917997 40.6758005 3.87502252 41.79352255 -1.03125 46.265625 C-4.26446075 50.89574019 -4.71150438 55.6611002 -5.21875 61.140625 C-5.486875 63.821875 -5.755 66.503125 -6.03125 69.265625 C1.22875 69.265625 8.48875 69.265625 15.96875 69.265625 C11.13171855 74.10265645 7.27953021 76.36571099 0.53125 76.703125 C-4.36689617 76.5278932 -7.93539616 74.84916358 -12.03125 72.265625 C-12.918125 71.70875 -13.805 71.151875 -14.71875 70.578125 C-18.04788325 67.24899175 -20.04989644 63.51222756 -22.03125 59.265625 C-22.36801758 58.5533374 -22.70478516 57.8410498 -23.05175781 57.10717773 C-25.82035138 50.82835885 -26.73829814 45.41546981 -26.65625 38.578125 C-26.64859619 37.62276855 -26.64094238 36.66741211 -26.63305664 35.68310547 C-26.27871122 24.25378504 -22.90574139 14.02319743 -14.6875 5.71484375 C-9.93886151 1.55978507 -6.11377714 0.79949393 0 0 Z " fill="#08945E" transform="translate(58.03125,21.734375)"/>
<path d="M0 0 C0.33 0 0.66 0 1 0 C2.15136852 4.60547409 2 7.93994143 2 13 C11.9 13 21.8 13 32 13 C32 30.16483516 32 30.16483516 25.828125 37.421875 C19.77454026 42.64761909 13.85754921 42.40146384 6.2578125 42.29296875 C5.13430389 42.28872391 4.01079529 42.28447906 2.85324097 42.28010559 C-0.72308663 42.2633589 -4.29884369 42.22571296 -7.875 42.1875 C-10.30467934 42.17244803 -12.73436755 42.15876052 -15.1640625 42.14648438 C-21.10956854 42.11346846 -27.0547435 42.0633085 -33 42 C-33.03065821 40.11338477 -33.05232278 38.22662231 -33.0703125 36.33984375 C-33.08336426 35.28917725 -33.09641602 34.23851074 -33.10986328 33.15600586 C-32.92584668 27.86982238 -32.09380672 22.49262705 -28.60546875 18.33984375 C-24.3412702 14.63700804 -20.62966101 12.73622365 -15.015625 12.8046875 C-13.61376953 12.81435547 -13.61376953 12.81435547 -12.18359375 12.82421875 C-10.73146484 12.84935547 -10.73146484 12.84935547 -9.25 12.875 C-8.26644531 12.88402344 -7.28289062 12.89304687 -6.26953125 12.90234375 C-3.84624974 12.92587075 -1.42309369 12.96174063 1 13 C0.67 8.71 0.34 4.42 0 0 Z " fill="#449E45" transform="translate(85,49)"/>
<path d="M0 0 C13.31554359 6.33372096 21.6031631 17.60508072 27 31 C28.8741138 37.53024543 29 43.13538385 29 50 C20.42 50 11.84 50 3 50 C2.62875 47.4425 2.2575 44.885 1.875 42.25 C0.24794818 32.37390922 -2.82968424 22.41953381 -11 16 C-11.87785156 15.30777344 -11.87785156 15.30777344 -12.7734375 14.6015625 C-17.90122144 10.93306885 -21.81083667 10.33495992 -28 11 C-28.77472656 11.07992188 -29.54945312 11.15984375 -30.34765625 11.2421875 C-32.23587964 11.4619807 -34.11882335 11.7263743 -36 12 C-29.3459193 4.96568612 -22.29095233 1.40794571 -12.56640625 0.77734375 C-3.87152778 0.70949074 -3.87152778 0.70949074 0 2 C0 1.34 0 0.68 0 0 Z " fill="#BD1B1B" transform="translate(84,12)"/>
<path d="M0 0 C5.506875 -0.1546875 5.506875 -0.1546875 11.125 -0.3125 C12.2711377 -0.35802002 13.41727539 -0.40354004 14.59814453 -0.45043945 C23.04690824 -0.56525257 23.04690824 -0.56525257 26.6796875 2.26953125 C29.77215092 5.90864225 29.77215092 5.90864225 30 9 C30.07863281 9.70898438 30.15726562 10.41796875 30.23828125 11.1484375 C30.42028232 16.60846967 29.81405935 19.78446072 26 24 C21.07151727 27.10230386 17.23986204 27.38393325 11.625 27.1875 C7.850625 27.0946875 7.850625 27.0946875 4 27 C4 32.94 4 38.88 4 45 C2.68 45 1.36 45 0 45 C0 30.15 0 15.3 0 0 Z " fill="#E8F4F0" transform="translate(243,40)"/>
<path d="M0 0 C5 1 5 1 6.20678711 2.74316406 C6.4775708 3.49307617 6.74835449 4.24298828 7.02734375 5.015625 C7.34171387 5.84892334 7.65608398 6.68222168 7.97998047 7.54077148 C8.29596191 8.43481689 8.61194336 9.3288623 8.9375 10.25 C9.62353757 12.08046557 10.3123478 13.90989435 11.00390625 15.73828125 C11.33922363 16.63627441 11.67454102 17.53426758 12.02001953 18.45947266 C13.72077169 22.86854764 15.74032712 27.10610522 17.7734375 31.37109375 C18.60403799 33.15132982 19.37905044 34.95837931 20.1015625 36.78515625 C20.80691969 38.93673686 20.80691969 38.93673686 22 40 C22.27674561 39.30028076 22.55349121 38.60056152 22.83862305 37.87963867 C24.11873466 34.64778978 25.40309399 31.41764448 26.6875 28.1875 C27.34008789 26.53717773 27.34008789 26.53717773 28.00585938 24.85351562 C31.36289191 16.42363391 34.89988832 8.0985677 39 0 C40.65 0 42.3 0 44 0 C44 15.18 44 30.36 44 46 C42.68 46 41.36 46 40 46 C39.67 34.12 39.34 22.24 39 10 C37.35 14.62 35.7 19.24 34 24 C31.4375 29.25 31.4375 29.25 30.19921875 31.609375 C28.50915978 34.97848279 27.15353983 38.45476569 25.796875 41.96875 C25 44 25 44 24 46 C22.35 46 20.7 46 19 46 C10.67291849 27.62787113 10.67291849 27.62787113 7.88671875 19.5546875 C6.65734249 16.0127841 5.31642943 12.51047849 4 9 C3.67 20.88 3.34 32.76 3 45 C2.01 45 1.02 45 0 45 C0 30.15 0 15.3 0 0 Z " fill="#E6F2ED" transform="translate(133,40)"/>
<path d="M0 0 C0.495 0.99 0.495 0.99 1 2 C-5.7498138 10.01418814 -10.28053783 14.85696242 -21 16 C-33.69977711 16.91008175 -44.09579817 15.36354821 -54 7 C-54 6.34 -54 5.68 -54 5 C-52.7934375 5.495 -52.7934375 5.495 -51.5625 6 C-43.53113851 8.25441726 -38.271687 7.14716379 -30.96875 3.19140625 C-29.06954393 2.14916471 -29.06954393 2.14916471 -28 1 C-25.9291528 0.8415735 -23.85321971 0.74875578 -21.77734375 0.68359375 C-20.51728516 0.64169922 -19.25722656 0.59980469 -17.95898438 0.55664062 C-16.61849264 0.51682404 -15.2779978 0.47711186 -13.9375 0.4375 C-12.59308477 0.39431958 -11.2486834 0.35070544 -9.90429688 0.30664062 C-6.6029766 0.20014642 -3.30157764 0.0981354 0 0 Z " fill="#F74D4B" transform="translate(102,90)"/>
<path d="M0 0 C2.51625 -0.103125 5.0325 -0.20625 7.625 -0.3125 C8.79603271 -0.38078003 8.79603271 -0.38078003 9.99072266 -0.45043945 C13.84420017 -0.52625679 16.36404824 -0.16144694 19.484375 2.203125 C22.16039344 5.17832562 22.782048 6.15442099 22.625 10.0625 C22.42016562 13.50371753 22.20216696 14.72370515 20.125 17.5625 C16.04129958 20.32500322 12.66451024 20.1158637 7.875 20.0625 C5.27625 20.041875 2.6775 20.02125 0 20 C0 13.4 0 6.8 0 0 Z " fill="#0C9660" transform="translate(247,43)"/>
<path d="M0 0 C2.56756672 1.41878926 3.97861665 2.8147207 6 5 C6.33 3.35 6.66 1.7 7 0 C7.99 0 8.98 0 10 0 C10 10.23 10 20.46 10 31 C9.01 31 8.02 31 7 31 C6.505 28.525 6.505 28.525 6 26 C5.4225 26.61875 4.845 27.2375 4.25 27.875 C0.97625921 30.9668663 -0.85155665 31.89366265 -5.375 32.3125 C-10.32876343 31.88545143 -13.41129833 30.27978746 -17.25 27.1875 C-20.91291702 22.60885372 -21.5930078 17.73240876 -21 12 C-19.57790269 7.69330758 -17.68619336 4.66945694 -14.4375 1.5 C-9.57464353 -0.62197373 -5.22297666 -0.93626693 0 0 Z M-16 9 C-17.60415783 13.81247349 -17.57681817 17.61039259 -15.625 22.3125 C-14.12620781 25.0332743 -14.12620781 25.0332743 -12 27 C-7.2908408 28.12647153 -3.17686378 28.38515542 1.4375 26.875 C4.38205406 24.72044825 5.64282894 23.39292765 7 20 C7.54067915 15.13388763 7.54236245 13.02661464 5.25 8.6875 C1.86343139 4.46445902 1.86343139 4.46445902 -3.04296875 2.61328125 C-9.22601767 2.14722229 -12.51297349 3.88154323 -16 9 Z " fill="#E4F1EB" transform="translate(297,54)"/>
<path d="M0 0 C3.93168425 2.07711621 6.71386371 4.18577731 9 8 C9.34057617 10.93261719 9.34057617 10.93261719 9.29296875 14.296875 C9.28330078 15.50214844 9.27363281 16.70742187 9.26367188 17.94921875 C9.23853516 19.20347656 9.21339844 20.45773438 9.1875 21.75 C9.16719727 23.65458984 9.16719727 23.65458984 9.14648438 25.59765625 C9.1111324 28.73219844 9.06178248 31.86588545 9 35 C7.68 35 6.36 35 5 35 C4.98541748 34.26362305 4.97083496 33.52724609 4.95581055 32.76855469 C4.88128889 29.42850996 4.78464127 26.08946019 4.6875 22.75 C4.66494141 21.59113281 4.64238281 20.43226562 4.61914062 19.23828125 C4.5659668 17.56572266 4.5659668 17.56572266 4.51171875 15.859375 C4.48553467 14.83295898 4.45935059 13.80654297 4.43237305 12.74902344 C3.94531595 9.65231934 3.1451965 8.25252177 1 6 C-1.97935395 4.94652678 -4.85550248 4.74411865 -8 5 C-10.55151968 6.84985177 -11.60976715 8.2195343 -13 11 C-13.15306901 12.81171098 -13.24946661 14.6283794 -13.31640625 16.4453125 C-13.35830078 17.52167969 -13.40019531 18.59804687 -13.44335938 19.70703125 C-13.50233398 21.39892578 -13.50233398 21.39892578 -13.5625 23.125 C-13.60568359 24.26066406 -13.64886719 25.39632812 -13.69335938 26.56640625 C-13.7996604 29.37747768 -13.90169405 32.18863945 -14 35 C-15.32 35 -16.64 35 -18 35 C-18 23.78 -18 12.56 -18 1 C-16.68 1 -15.36 1 -14 1 C-13.67 1.99 -13.34 2.98 -13 4 C-12.34 3.34 -11.68 2.68 -11 2 C-7.28239848 -0.47840101 -4.30001201 -0.84313961 0 0 Z " fill="#E7F2ED" transform="translate(212,51)"/>
<path d="M0 0 C1.32 0 2.64 0 4 0 C12.45916795 18.2357473 12.45916795 18.2357473 14 25 C14.66 25 15.32 25 16 25 C16.09796875 24.443125 16.1959375 23.88625 16.296875 23.3125 C17.25510751 18.42220996 18.62563666 14.37943288 20.98046875 9.99609375 C22.62718433 6.77206439 23.78342077 3.40642183 25 0 C26.32 0 27.64 0 29 0 C28.33711739 4.56947082 26.58043203 8.51970269 24.6875 12.6875 C24.04700317 14.12317478 23.40767577 15.55937185 22.76953125 16.99609375 C22.46225098 17.68687012 22.1549707 18.37764648 21.83837891 19.08935547 C20.7995315 21.45686269 19.82503994 23.84557792 18.875 26.25 C18.57335937 27.00667969 18.27171875 27.76335937 17.9609375 28.54296875 C17.22089395 30.43519393 16.50071112 32.33519511 15.7890625 34.23828125 C15.15097656 35.88376953 15.15097656 35.88376953 14.5 37.5625 C14.1184375 38.57441406 13.736875 39.58632812 13.34375 40.62890625 C12 43 12 43 9.84375 43.83984375 C9.2353125 43.89269531 8.626875 43.94554687 8 44 C8.48296485 40.81243199 9.25228924 38.45660779 10.625 35.5 C12.41843229 30.93489962 11.71158161 28.7250557 9.87670898 24.27685547 C9.42110596 23.31666504 8.96550293 22.35647461 8.49609375 21.3671875 C8.00302734 20.31402344 7.50996094 19.26085937 7.00195312 18.17578125 C5.95524421 15.96736919 4.90836802 13.7590364 3.86132812 11.55078125 C3.36955078 10.50019531 2.87777344 9.44960938 2.37109375 8.3671875 C1.91661865 7.40925293 1.46214355 6.45131836 0.99389648 5.46435547 C0 3 0 3 0 0 Z " fill="#E6F3EE" transform="translate(312,54)"/>
<path d="M0 0 C2.475 0.495 2.475 0.495 5 1 C8.06464372 5.69319836 10.64351503 11.56164356 9.8125 17.25 C9.544375 18.1575 9.27625 19.065 9 20 C5.74152641 16.2971891 5.51531602 14.30360605 4 9 C3.67 20.88 3.34 32.76 3 45 C2.01 45 1.02 45 0 45 C0 30.15 0 15.3 0 0 Z " fill="#F6FBF9" transform="translate(133,40)"/>
<path d="M0 0 C1.32 0 2.64 0 4 0 C4 4.95 4 9.9 4 15 C3.01 15 2.02 15 1 15 C0.67 13.02 0.34 11.04 0 9 C-0.66 10.98 -1.32 12.96 -2 15 C-3.32 15 -4.64 15 -6 15 C-6.66 13.68 -7.32 12.36 -8 11 C-8.33 12.32 -8.66 13.64 -9 15 C-9.99 15 -10.98 15 -12 15 C-12 10.38 -12 5.76 -12 1 C-10.68 1 -9.36 1 -8 1 C-5 6.625 -5 6.625 -5 10 C-4.34 10 -3.68 10 -3 10 C-2.87625 9.46375 -2.7525 8.9275 -2.625 8.375 C-1.87793984 5.5361714 -0.94696636 2.77776798 0 0 Z " fill="#DEECDF" transform="translate(77,69)"/>
<path d="M0 0 C1.32 0 2.64 0 4 0 C4 11.22 4 22.44 4 34 C2.68 34 1.36 34 0 34 C0 22.78 0 11.56 0 0 Z " fill="#F3F9F7" transform="translate(228,52)"/>
<path d="M0 0 C0.33 0 0.66 0 1 0 C1 2.31 1 4.62 1 7 C1.66 7 2.32 7 3 7 C3.391875 7.94875 3.78375 8.8975 4.1875 9.875 C5.71582264 13.03251868 5.71582264 13.03251868 8.125 14.4375 C13.19733316 15.42991301 18.10429775 15.15591601 22.5625 12.4375 C23.036875 11.963125 23.51125 11.48875 24 11 C24.33 11.99 24.66 12.98 25 14 C21.33047992 17.93162866 19.0466953 19.81049118 13.625 20.3125 C7.74674007 19.80575345 3.78611852 17.48725158 0 13 C-0.94738023 10.15785932 -1.13460559 8.32391609 -1.125 5.375 C-1.12757813 4.57835938 -1.13015625 3.78171875 -1.1328125 2.9609375 C-1 1 -1 1 0 0 Z " fill="#EAF4F0" transform="translate(278,66)"/>
<path d="M0 0 C1.32 0 2.64 0 4 0 C6.25 3 6.25 3 8 6 C8.33 4.02 8.66 2.04 9 0 C9.99 0 10.98 0 12 0 C12 4.62 12 9.24 12 14 C8 13 8 13 5.75 9.9375 C5.1725 8.968125 4.595 7.99875 4 7 C3.67 9.31 3.34 11.62 3 14 C2.01 14 1.02 14 0 14 C0 9.38 0 4.76 0 0 Z " fill="#E6F0E6" transform="translate(87,70)"/>
<path d="M0 0 C0.99 0 1.98 0 3 0 C3 10.23 3 20.46 3 31 C2.01 31 1.02 31 0 31 C0 29.02 0 27.04 0 25 C-0.66 25 -1.32 25 -2 25 C-1.835 24.34 -1.67 23.68 -1.5 23 C-0.65121896 17.90731377 -0.59749947 13.00893046 -2 8 C-1.67 7.67 -1.34 7.34 -1 7 C-0.63239269 4.67182036 -0.29758419 2.3381615 0 0 Z " fill="#F9FCFB" transform="translate(304,54)"/>
<path d="M0 0 C0.99 0 1.98 0 3 0 C3 10.89 3 21.78 3 33 C2.01 33 1.02 33 0 33 C0 22.11 0 11.22 0 0 Z " fill="#FEFEFE" transform="translate(184,52)"/>
<path d="M0 0 C1.32 0 2.64 0 4 0 C3.34496718 4.05819183 2.05440879 7.53971282 0.4375 11.3125 C-0.01753906 12.38113281 -0.47257812 13.44976562 -0.94140625 14.55078125 C-1.46541016 15.76314453 -1.46541016 15.76314453 -2 17 C-2.33 16.01 -2.66 15.02 -3 14 C-3.66 14 -4.32 14 -5 14 C-4.54636829 12.41531323 -4.08688548 10.83230076 -3.625 9.25 C-3.36976563 8.36828125 -3.11453125 7.4865625 -2.8515625 6.578125 C-2.0790066 4.23919428 -1.16374324 2.16557438 0 0 Z " fill="#DDEEE7" transform="translate(337,54)"/>
<path d="M0 0 C1.32 0 2.64 0 4 0 C4.38218767 1.65614657 4.71395102 3.32457024 5 5 C4.67 5.33 4.34 5.66 4 6 C3.76924918 7.34747084 3.58846937 8.70377565 3.4375 10.0625 C3.2209375 12.0115625 3.2209375 12.0115625 3 14 C2.01 14 1.02 14 0 14 C0 9.38 0 4.76 0 0 Z " fill="#E9F1E9" transform="translate(65,70)"/>
<path d="M0 0 C0.99 0 1.98 0 3 0 C3 4.95 3 9.9 3 15 C2.01 15 1.02 15 0 15 C0 10.05 0 5.1 0 0 Z " fill="#DCECDD" transform="translate(101,69)"/>
<path d="M0 0 C0.99 0 1.98 0 3 0 C3 4.62 3 9.24 3 14 C2.01 14 1.02 14 0 14 C0 9.38 0 4.76 0 0 Z " fill="#E9F2E9" transform="translate(82,70)"/>
<path d="M0 0 C2 2 2 2 2 5 C3.32 5.33 4.64 5.66 6 6 C5.67 7.32 5.34 8.64 5 10 C3.68 10 2.36 10 1 10 C-0.85064319 6.87703962 -1.29356154 4.62059232 -1 1 C-0.67 0.67 -0.34 0.34 0 0 Z " fill="#D7E9D8" transform="translate(70,74)"/>
<path d="M0 0 C0.66 0 1.32 0 2 0 C2 4.62 2 9.24 2 14 C0.68 13.67 -0.64 13.34 -2 13 C-2 12.01 -2 11.02 -2 10 C-1.34 10 -0.68 10 0 10 C0 6.7 0 3.4 0 0 Z " fill="#F7FAF7" transform="translate(97,70)"/>
<path d="M0 0 C0.66 0.99 1.32 1.98 2 3 C-0.36292656 5.52588702 -1.66462511 6.88820837 -5 8 C-5 7.34 -5 6.68 -5 6 C-7.64 6 -10.28 6 -13 6 C-13.33 5.34 -13.66 4.68 -14 4 C-12.783125 4.04125 -11.56625 4.0825 -10.3125 4.125 C-6.78407544 4.125 -4.15250325 3.71954723 -1 2 C-0.67 1.34 -0.34 0.68 0 0 Z " fill="#D3E8DF" transform="translate(301,77)"/>
<path d="M0 0 C0.6875 1.6875 0.6875 1.6875 1 4 C-0.3125 6.75 -0.3125 6.75 -2 9 C-2.66 9 -3.32 9 -4 9 C-3.6875 5.625 -3.6875 5.625 -3 2 C-2.01 1.34 -1.02 0.68 0 0 Z " fill="#F0F8F5" transform="translate(162,68)"/>
<path d="M0 0 C0.66 0.33 1.32 0.66 2 1 C-0.97 3.97 -3.94 6.94 -7 10 C-7.66 9.67 -8.32 9.34 -9 9 C-8.06725891 7.87105124 -7.12859878 6.74699124 -6.1875 5.625 C-5.66542969 4.99851562 -5.14335937 4.37203125 -4.60546875 3.7265625 C-3 2 -3 2 0 0 Z " fill="#E92532" transform="translate(24,17)"/>
<path d="M0 0 C1.65 0 3.3 0 5 0 C5 1.65 5 3.3 5 5 C3.35 5 1.7 5 0 5 C0 3.35 0 1.7 0 0 Z " fill="#EBF6F2" transform="translate(183,42)"/>
<path d="M0 0 C0.33 0.66 0.66 1.32 1 2 C1.99 1.67 2.98 1.34 4 1 C3.34 2.98 2.68 4.96 2 7 C-1 7 -1 7 -3 6 C-2.01 4.02 -1.02 2.04 0 0 Z " fill="#D0E7DD" transform="translate(157,75)"/>
<path d="M0 0 C1.32 0 2.64 0 4 0 C4 1.65 4 3.3 4 5 C2.68 5 1.36 5 0 5 C0 3.35 0 1.7 0 0 Z " fill="#F3F9F7" transform="translate(228,42)"/>
<path d="M0 0 C0.66 0.33 1.32 0.66 2 1 C-0.57404971 4.86107457 -2.61020259 4.94319692 -7 6 C-2.25 1.125 -2.25 1.125 0 0 Z " fill="#A70506" transform="translate(55,18)"/>
<path d="M0 0 C1.32 0.33 2.64 0.66 4 1 C3.34 2.32 2.68 3.64 2 5 C1.34 5 0.68 5 0 5 C-0.99 5.495 -0.99 5.495 -2 6 C-1.34 4.02 -0.68 2.04 0 0 Z " fill="#D4E8DF" transform="translate(167,51)"/>
</svg>
